<svg width="404" height="404" viewBox="0 0 404 404" fill="none" xmlns="http://www.w3.org/2000/svg">
<path d="M72.3845 18.7882C75.6514 22.1278 75.6036 27.4586 72.4295 30.8862C36.5864 69.5924 17.1699 119.397 17.1699 172.345C17.1699 228.105 38.9947 280.38 78.2792 319.877C117.855 359.373 170.234 380.864 226.105 380.864C279.154 380.864 329.056 361.227 367.838 325.683C371.279 322.528 376.613 322.491 379.957 325.749C383.367 329.071 383.408 334.548 379.916 337.783C337.936 376.674 283.735 398 226.105 398C165.578 398 108.832 374.477 66.3466 331.785C23.5701 289.385 0 232.752 0 172.345C1.14486e-05 114.825 21.372 60.7269 60.3478 18.8289C63.5841 15.35 69.0616 15.3914 72.3845 18.7882Z" fill="#E8362D"/>
<path d="M90.2089 89.8658C99.5204 87.5427 112.324 87.8342 124.836 89.5765C137.032 91.3685 148.897 94.1725 160.343 97.8996C170.907 101.34 177.508 111.512 177.508 122.603C177.508 144.623 151.974 158.746 130.556 153.451C123.423 151.688 116.072 150.421 108.541 149.693C102.43 148.822 96.6092 153.177 95.7361 160.147C94.8631 166.536 99.8118 172.346 106.214 172.927C130.948 175.25 153.647 184.832 172.27 198.772C207.481 225.49 228.43 269.344 223.775 316.391C223.108 322.596 222.019 328.674 220.554 334.593C216.326 351.677 199.008 361.565 181.793 357.756C180.838 357.545 179.886 357.327 178.937 357.103C176.442 356.514 174.078 355.481 171.913 354.111C160.532 346.908 157.697 331.845 160.679 318.73C161.789 313.849 162.375 308.794 162.375 303.614C162.375 269.736 137.498 241.055 105.048 235.416C104.856 235.383 104.661 235.366 104.466 235.366C100.101 234.786 91.3725 233.912 85.8439 232.17C55.8713 222.586 34.337 194.707 34.337 161.599C34.3371 143.013 41.0297 125.878 52.6692 112.81C62.5631 101.774 75.3681 93.6412 90.2089 89.8658Z" fill="#E8362D"/>
<path d="M235.508 242.858C234.576 240.704 236.267 238.271 238.617 238.271C275.066 238.271 308.974 261.971 309.848 298.336C309.89 300.091 309.911 301.85 309.911 303.614C309.911 310.489 309.557 317.292 308.92 323.991C307.703 336.774 299.275 347.75 287.115 351.947C286.03 352.322 284.941 352.687 283.849 353.044C279.038 354.616 273.865 354.588 268.989 353.227L268.425 353.069C253.972 349.036 245.946 333.918 247.347 319.006C250.055 292.119 245.579 266.113 235.508 242.858Z" fill="#E8362D"/>
<path d="M107.959 262.375C123.963 262.375 137.058 275.443 137.058 291.416C137.058 307.389 123.963 320.458 107.959 320.458C91.9537 320.458 78.8589 307.389 78.8589 291.416C78.8589 275.443 91.9537 262.375 107.959 262.375Z" fill="#E8362D"/>
<path d="M371.461 238.271C381.192 238.271 389.688 244.985 391.256 254.57C391.958 258.862 391.203 263.3 389.023 267.065C382.796 277.814 375.424 287.918 367.119 297.058C363.563 300.972 358.444 303.033 353.151 303.033C342.127 303.033 333.278 294.099 332.371 283.135C332.14 280.352 331.862 277.581 331.537 274.825C329.342 256.225 342.897 238.271 361.664 238.271H371.461Z" fill="#E8362D"/>
<path d="M123.994 10.9905C131.197 6.50197 139.857 5.04548 148.204 6.60383C150.818 7.09184 153.421 7.61347 156.011 8.16829C168.868 10.9219 177.508 22.6237 177.508 35.7468C177.508 56.4169 156.652 70.7993 136.28 67.0739C128.471 65.646 120.53 64.5956 112.478 63.9429C101.65 63.0651 92.829 54.3606 92.829 43.5187C92.829 38.0719 95.0661 32.8344 99.2008 29.279C106.999 22.5735 115.283 16.4183 123.994 10.9905Z" fill="#E8362D"/>
<path d="M377.81 160.826C377.81 150.4 369.342 141.949 358.896 141.949C348.449 141.949 339.981 150.4 339.981 160.826C339.981 171.252 348.449 179.703 358.896 179.703C369.342 179.703 377.81 171.252 377.81 160.826ZM404 160.826C404 185.687 383.806 205.841 358.896 205.841C333.985 205.841 313.791 185.687 313.791 160.826C313.791 135.965 333.985 115.811 358.896 115.811C383.806 115.811 404 135.965 404 160.826Z" fill="#E8362D"/>
<path d="M271.112 54.3398C271.112 43.9142 262.643 35.4627 252.197 35.4627C241.751 35.4627 233.282 43.9142 233.282 54.3398C233.282 64.7653 241.751 73.2169 252.197 73.2169C262.643 73.2169 271.112 64.7653 271.112 54.3398ZM297.301 54.3398C297.301 79.2007 277.107 99.3544 252.197 99.3544C227.286 99.3544 207.092 79.2007 207.092 54.3398C207.092 29.4789 227.286 9.32513 252.197 9.32513C277.107 9.32513 297.301 29.4789 297.301 54.3398Z" fill="#E8362D"/>
<path d="M393.33 54.3398C393.33 47.1221 387.467 41.271 380.235 41.271H295.371C296.626 45.407 297.301 49.7947 297.301 54.3398C297.301 58.8848 296.626 63.2725 295.371 67.4085H380.235C387.467 67.4085 393.33 61.5575 393.33 54.3398Z" fill="#E8362D"/>
<path d="M230.857 173.895H315.721C314.466 169.759 313.791 165.371 313.791 160.826C313.791 156.281 314.466 151.893 315.721 147.757H230.857C223.625 147.757 217.762 153.608 217.762 160.826C217.762 168.044 223.625 173.895 230.857 173.895Z" fill="#E8362D"/>
</svg>
